<svg xmlns="http://www.w3.org/2000/svg" aria-hidden="true" style="position:absolute;width:0;height:0;overflow:hidden">
  <defs>
    <symbol id="icon-rating" viewBox="0 0 34 32">
      <path d="M16.123 1.788c.4-.759 1.487-.759 1.887 0l4.028 7.635c.154.293.436.497.761.553l8.506 1.472c.845.146 1.181 1.179.583 1.794l-6.017 6.19c-.23.237-.338.568-.291.895l1.229 8.544c.122.849-.757 1.488-1.526 1.109l-7.747-3.809c-.297-.146-.645-.146-.941 0L8.848 29.98c-.77.378-1.649-.26-1.526-1.109l1.229-8.544c.047-.327-.06-.658-.291-.895l-6.016-6.19c-.598-.615-.262-1.648.583-1.794l8.506-1.472c.326-.056.607-.261.762-.553l4.028-7.635z" />
    </symbol>
    <symbol id="icon-kitchen" viewBox="0 0 32 32">
      <path d="M1 12c-.15 0-.297.034-.432.098s-.254.159-.347.276c-.094.117-.16.253-.194.399s-.035.297-.003.443l3.304 14.868c.247 1.111.865 2.104 1.752 2.816S7.071 32 8.208 32h11.584c1.138 0 2.241-.388 3.128-1.1s1.505-1.705 1.752-2.816l.262-1.18c1.53.286 3.111-.033 4.41-.891s2.213-2.187 2.551-3.706.071-3.11-.742-4.437c-.814-1.327-2.111-2.285-3.618-2.674l.442-1.98c.032-.146.032-.298-.003-.443s-.1-.282-.194-.399c-.094-.117-.212-.211-.347-.276S27.15 12 27.001 12h-26zm25 13c-.212 0-.423-.017-.632-.05l1.734-7.796c.925.268 1.722.86 2.246 1.669s.738 1.778.604 2.732c-.134.954-.607 1.827-1.333 2.46S26.963 24.998 26 25zM5.28 27.65 2.246 14h23.508L22.72 27.65c-.148.666-.519 1.262-1.051 1.69s-1.195.66-1.877.66H8.208c-.683 0-1.345-.233-1.877-.66s-.903-1.023-1.051-1.69zM8.8 1.6l-.006.008-.028.038c-.146.2-.282.407-.408.62-.107.171-.202.349-.282.534-.052.12-.068.184-.074.206v.008c.023.177.085.346.182.496.15.266.356.544.616.89l.02.024c.236.316.52.694.74 1.086.224.4.44.91.44 1.49 0 .376-.13.736-.238.988-.116.268-.251.528-.404.776-.157.262-.326.517-.506.764l-.036.05-.01.016-.004.004c-.159.212-.396.353-.658.391s-.529-.03-.742-.189c-.212-.159-.353-.396-.391-.658s.03-.529.189-.742l.006-.008.028-.038c.146-.2.282-.407.408-.62.107-.171.202-.349.282-.534.052-.12.068-.184.074-.206-.021-.179-.083-.352-.18-.504-.186-.31-.392-.608-.618-.89l-.02-.024c-.27-.345-.517-.708-.74-1.086C6.168 4.039 6.016 3.526 6 3c0-.376.13-.736.238-.988.118-.276.268-.548.404-.776.159-.261.328-.516.506-.764l.05-.07c.159-.212.396-.353.658-.391s.529.03.742.189c.212.159.353.396.391.658s-.03.529-.189.742zm6 0-.006.008-.028.038c-.146.2-.282.407-.408.62-.107.171-.202.349-.282.534-.052.12-.068.184-.074.206v.008c.023.177.085.346.182.496.15.266.356.544.616.89l.02.024c.236.316.52.694.74 1.086.224.4.44.91.44 1.49 0 .376-.13.736-.238.988-.116.268-.251.528-.404.776-.157.262-.326.517-.506.764l-.036.05-.01.016-.004.004c-.159.212-.396.353-.658.391s-.529-.03-.742-.189c-.212-.159-.353-.396-.391-.658s.03-.529.189-.742l.006-.008.028-.038c.146-.2.282-.407.408-.62.107-.171.202-.349.282-.534.052-.12.068-.184.074-.206-.021-.179-.083-.352-.18-.504-.186-.31-.392-.608-.618-.89l-.02-.024c-.27-.345-.517-.708-.74-1.086-.272-.451-.424-.964-.44-1.49 0-.376.13-.736.238-.988.118-.276.268-.548.404-.776.159-.261.328-.516.506-.764l.05-.07c.159-.212.396-.353.658-.391s.529.03.742.189c.212.159.353.396.391.658s-.03.529-.189.742zm6 0-.006.008-.028.038c-.146.2-.282.407-.408.62-.107.171-.202.349-.282.534-.052.12-.068.184-.074.206v.008c.023.177.085.346.182.496.15.266.356.544.616.89l.02.024c.236.316.52.694.74 1.086.224.4.44.91.44 1.49 0 .376-.13.736-.238.988-.116.268-.251.528-.404.776-.156.262-.324.517-.504.764l-.038.05-.01.016-.004.004c-.159.212-.396.353-.658.391s-.529-.03-.742-.189c-.212-.159-.353-.396-.391-.658s.03-.529.189-.742l.006-.008.028-.038c.146-.2.282-.407.408-.62.107-.171.202-.349.282-.534.052-.12.068-.184.074-.206-.021-.179-.083-.352-.18-.504-.186-.31-.392-.608-.618-.89l-.02-.024c-.27-.345-.517-.708-.74-1.086-.272-.451-.424-.964-.44-1.49 0-.376.13-.736.238-.988.118-.276.268-.548.404-.776.159-.261.328-.516.506-.764l.05-.07c.159-.212.396-.353.658-.391s.529.03.742.189c.212.159.353.396.391.658s-.03.529-.189.742z"/>
    </symbol>
    <symbol id="icon-alcove" viewBox="0 0 32 32">
      <path d="M8 4v4H4V4h4zm2 24v-4c0-.53-.211-1.039-.586-1.414S8.53 22 8 22H4c-.53 0-1.039.211-1.414.586S2 23.47 2 24v4c0 .53.211 1.039.586 1.414S3.47 30 4 30h4c.53 0 1.039-.211 1.414-.586S10 28.53 10 28zm0-10v-4c0-.53-.211-1.039-.586-1.414S8.53 12 8 12H4c-.53 0-1.039.211-1.414.586S2 13.47 2 14v4c0 .53.211 1.039.586 1.414S3.47 20 4 20h4c.53 0 1.039-.211 1.414-.586S10 18.53 10 18zm0-10V4c0-.53-.211-1.039-.586-1.414S8.53 2 8 2H4c-.53 0-1.039.211-1.414.586S2 3.47 2 4v4c0 .53.211 1.039.586 1.414S3.47 10 4 10h4c.53 0 1.039-.211 1.414-.586S10 8.53 10 8zm10 20v-4c0-.53-.211-1.039-.586-1.414S18.53 22 18 22h-4c-.53 0-1.039.211-1.414.586S12 23.47 12 24v4c0 .53.211 1.039.586 1.414S13.47 30 14 30h4c.53 0 1.039-.211 1.414-.586S20 28.53 20 28zm0-10v-4c0-.53-.211-1.039-.586-1.414S18.53 12 18 12h-4c-.53 0-1.039.211-1.414.586S12 13.47 12 14v4c0 .53.211 1.039.586 1.414S13.47 20 14 20h4c.53 0 1.039-.211 1.414-.586S20 18.53 20 18zm0-10V4c0-.53-.211-1.039-.586-1.414S18.53 2 18 2h-4c-.53 0-1.039.211-1.414.586S12 3.47 12 4v4c0 .53.211 1.039.586 1.414S13.47 10 14 10h4c.53 0 1.039-.211 1.414-.586S20 8.53 20 8zm-2-4v4h-4V4h4zm10 0v4h-4V4h4zM8 14v4H4v-4h4zm10 0v4h-4v-4h4zm10 0h-4v4h4v-4zM8 24v4H4v-4h4zm10 0v4h-4v-4h4zm10 0v4h-4v-4h4zM24 2c-.53 0-1.039.211-1.414.586S22 3.47 22 4v4c0 .53.211 1.039.586 1.414S23.47 10 24 10h4c.53 0 1.039-.211 1.414-.586S30 8.53 30 8V4c0-.53-.211-1.039-.586-1.414S28.53 2 28 2h-4zm-2 12c0-.53.211-1.039.586-1.414S23.47 12 24 12h4c.53 0 1.039.211 1.414.586S30 13.47 30 14v4c0 .53-.211 1.039-.586 1.414S28.53 20 28 20h-4c-.53 0-1.039-.211-1.414-.586S22 18.53 22 18v-4zm2 8c-.53 0-1.039.211-1.414.586S22 23.47 22 24v4c0 .53.211 1.039.586 1.414S23.47 30 24 30h4c.53 0 1.039-.211 1.414-.586S30 28.53 30 28v-4c0-.53-.211-1.039-.586-1.414S28.53 22 28 22h-4z"/>
    </symbol>
    <symbol id="icon-fully" viewBox="0 0 32 32">
      <path d="M2 5c0-.796.316-1.559.879-2.121S4.205 2 5 2h6c.796 0 1.559.316 2.121.879S14 4.205 14 5v6c0 .796-.316 1.559-.879 2.121S11.795 14 11 14H5c-.796 0-1.559-.316-2.121-.879S2 11.795 2 11V5zm3-1c-.265 0-.52.105-.707.293S4 4.735 4 5v6c0 .265.105.52.293.707S4.735 12 5 12h6c.265 0 .52-.105.707-.293S12 11.265 12 11V5c0-.265-.105-.52-.293-.707S11.265 4 11 4H5zm13 1c0-.796.316-1.559.879-2.121S20.205 2 21 2h6c.796 0 1.559.316 2.121.879S30 4.205 30 5v6c0 .796-.316 1.559-.879 2.121S27.795 14 27 14h-6c-.796 0-1.559-.316-2.121-.879S18 11.795 18 11V5zm3-1c-.265 0-.52.105-.707.293S20 4.735 20 5v6c0 .265.105.52.293.707S20.735 12 21 12h6c.265 0 .52-.105.707-.293S28 11.265 28 11V5c0-.265-.105-.52-.293-.707S27.265 4 27 4h-6zM2 21c0-.796.316-1.559.879-2.121S4.205 18 5 18h6c.796 0 1.559.316 2.121.879S14 20.205 14 21v6c0 .796-.316 1.559-.879 2.121S11.795 30 11 30H5c-.796 0-1.559-.316-2.121-.879S2 27.795 2 27v-6zm3-1c-.265 0-.52.105-.707.293S4 20.735 4 21v6c0 .265.105.52.293.707S4.735 28 5 28h6c.265 0 .52-.105.707-.293S12 27.265 12 27v-6c0-.265-.105-.52-.293-.707S11.265 20 11 20H5zm13 1c0-.796.316-1.559.879-2.121S20.205 18 21 18h6c.796 0 1.559.316 2.121.879S30 20.205 30 21v6c0 .796-.316 1.559-.879 2.121S27.795 30 27 30h-6c-.796 0-1.559-.316-2.121-.879S18 27.795 18 27v-6zm3-1c-.265 0-.52.105-.707.293S20 20.735 20 21v6c0 .265.105.52.293.707S20.735 28 21 28h6c.265 0 .52-.105.707-.293S28 27.265 28 27v-6c0-.265-.105-.52-.293-.707S27.265 20 27 20h-6z"/>
    </symbol>
    <symbol id="icon-transmission" viewBox="0 0 32 32">
      <path d="M12 7c0-.796.316-1.559.879-2.121S14.205 4 15 4h2c.796 0 1.559.316 2.121.879S20 6.205 20 7v2c0 .796-.316 1.559-.879 2.121S17.795 12 17 12v2h11c.265 0 .52.105.707.293S29 14.735 29 15v2c0 .265-.105.52-.293.707S28.265 18 28 18s-.52-.105-.707-.293A.9991.9991 0 0 1 27 17v-1H17v1c0 .265-.105.52-.293.707S16.265 18 16 18c-.265 0-.52-.105-.707-.293S15 17.265 15 17v-1H5v1c0 .265-.105.52-.293.707S4.265 18 4 18s-.52-.105-.707-.293A.9991.9991 0 0 1 3 17v-2c0-.265.105-.52.293-.707S3.735 14 4 14h11v-2c-.796 0-1.559-.316-2.121-.879S12 9.795 12 9V7zm5 3c.265 0 .52-.105.707-.293S18 9.265 18 9V7c0-.265-.105-.52-.293-.707S17.265 6 17 6h-2c-.265 0-.52.105-.707.293S14 6.735 14 7v2c0 .265.105.52.293.707S14.735 10 15 10h2zM0 23c0-.796.316-1.559.879-2.121S2.205 20 3 20h2c.796 0 1.559.316 2.121.879S8 22.205 8 23v2c0 .796-.316 1.559-.879 2.121S5.795 28 5 28H3c-.796 0-1.559-.316-2.121-.879S0 25.795 0 25v-2zm3-1c-.265 0-.52.105-.707.293S2 22.735 2 23v2c0 .265.105.52.293.707S2.735 26 3 26h2c.265 0 .52-.105.707-.293S6 25.265 6 25v-2c0-.265-.105-.52-.293-.707S5.265 22 5 22H3zm9 1c0-.796.316-1.559.879-2.121S14.205 20 15 20h2c.796 0 1.559.316 2.121.879S20 22.205 20 23v2c0 .796-.316 1.559-.879 2.121S17.795 28 17 28h-2c-.796 0-1.559-.316-2.121-.879S12 25.795 12 25v-2zm3-1c-.265 0-.52.105-.707.293S14 22.735 14 23v2c0 .265.105.52.293.707S14.735 26 15 26h2c.265 0 .52-.105.707-.293S18 25.265 18 25v-2c0-.265-.105-.52-.293-.707S17.265 22 17 22h-2zm9 1c0-.796.316-1.559.879-2.121S26.205 20 27 20h2c.796 0 1.559.316 2.121.879S32 22.205 32 23v2c0 .796-.316 1.559-.879 2.121S29.795 28 29 28h-2c-.796 0-1.559-.316-2.121-.879S24 25.795 24 25v-2zm3-1c-.265 0-.52.105-.707.293S26 22.735 26 23v2c0 .265.105.52.293.707S26.735 26 27 26h2c.265 0 .52-.105.707-.293S30 25.265 30 25v-2c0-.265-.105-.52-.293-.707S29.265 22 29 22h-2z"/>
    </symbol>
    <symbol id="icon-gas" viewBox="0 0 32 32">
      <path d="M6.053 1.556C3.96 1.767 2.634 2.6 2.002 4.101c-.187.446-.381 1.289-.465 2.032-.103.899-.103 18.84 0 19.734.22 1.914.783 3.043 1.877 3.761.634.416 1.332.641 2.506.81.621.089 1.313.095 10.08.095s9.459-.006 10.08-.095c1.536-.221 2.434-.601 3.128-1.325.676-.705 1.016-1.543 1.23-3.033.089-.621.095-1.313.095-10.08s-.006-9.459-.095-10.08c-.229-1.593-.603-2.451-1.387-3.177-.717-.664-1.762-1.053-3.207-1.193-.726-.071-19.085-.065-19.791.006zm20.214 2.456c1.158.269 1.452.563 1.72 1.721.078.335.089 1.346.107 9.867.013 6.528.001 9.67-.038 10.059-.196 1.924-.675 2.311-3.031 2.448-1.172.068-16.878.068-18.05 0-2.356-.137-2.835-.524-3.031-2.448-.039-.389-.051-3.531-.038-10.059.022-10.3.006-9.747.305-10.543.248-.659.804-.965 2.016-1.108.198-.024 4.704-.039 10.013-.033 8.691.009 9.691.019 10.027.096zM15.52 5.578c-.402.175-.657.543-.72 1.04l-.037.298-.275.069c-2.381.596-4.179 2.354-4.804 4.695l-.121.453-.315.031c-.358.036-.573.133-.775.351-.201.2-.325.477-.325.783 0 .012 0 .025.001.037v-.002c0 .655.438 1.106 1.168 1.203l.269.036.066.301c.236 1.065.892 2.225 1.738 3.071.845.845 2.005 1.501 3.071 1.737l.302.067.037.299c.085.678.552 1.132 1.169 1.138.67.006 1.137-.437 1.234-1.169l.036-.268.3-.067c1.066-.236 2.226-.892 3.071-1.737.846-.846 1.497-1.998 1.738-3.077l.066-.295.273-.036c.728-.097 1.169-.565 1.164-1.237 0-.306-.124-.583-.324-.784-.203-.218-.417-.315-.777-.351l-.317-.031-.089-.346c-.303-1.207-.909-2.245-1.734-3.064-.86-.861-1.88-1.433-3.098-1.738l-.274-.069-.035-.267c-.07-.525-.298-.87-.696-1.055-.261-.12-.728-.128-.987-.016zm-.421 3.884c.156.198.616.405.901.405.288 0 .746-.208.906-.411.122-.156.206-.147.721.078.971.445 1.732 1.207 2.165 2.152l.011.027c.22.5.232.625.075.728-.194.127-.411.598-.411.892 0 .29.207.746.413.908.13.103.134.117.07.333-.346 1.167-1.488 2.338-2.614 2.679l-.327.098-.08-.114c-.044-.064-.193-.182-.331-.263-.172-.099-.378-.157-.598-.157s-.426.058-.604.161l.006-.003c-.138.081-.287.199-.331.263l-.08.114-.327-.098c-1.126-.341-2.268-1.512-2.614-2.679-.064-.216-.06-.23.07-.333.206-.162.413-.618.413-.908 0-.291-.216-.764-.406-.889-.163-.106-.16-.157.033-.64.438-1.092 1.356-1.971 2.502-2.393.272-.1.323-.094.437.051zM7.52 24.245c-.792.343-.954 1.408-.301 1.981.351.309.336.307 3.448.307 3.118 0 3.095.002 3.453-.312.632-.555.482-1.607-.28-1.96-.2-.092-.403-.099-3.173-.098-2.526.001-2.988.013-3.147.082zm16 0c-.417.185-.703.596-.703 1.073v.011-.001c.001.383.062.536.336.832.207.235.509.383.846.383.301 0 .575-.118.777-.311.289-.266.407-.514.409-.863.006-.696-.496-1.208-1.184-1.206a1.507 1.507 0 0 0-.491.085l.011-.003z"/>
    </symbol>
    <symbol id="icon-ac" viewBox="0 0 32 32">
      <path d="M25 4c-1.326 0-2.598.527-3.536 1.464S20 7.673 20 9c0 .265-.105.52-.293.707S19.265 10 19 10s-.52-.105-.707-.293A.9991.9991 0 0 1 18 9c0-1.384.411-2.738 1.18-3.889s1.862-2.048 3.142-2.578c1.279-.53 2.687-.668 4.044-.398s2.605.937 3.584 1.916c.979.979 1.646 2.226 1.916 3.584s.132 2.765-.398 4.044c-.53 1.279-1.427 2.372-2.578 3.142s-2.504 1.18-3.889 1.18h-24c-.265 0-.52-.105-.707-.293s-.293-.442-.293-.707c0-.265.105-.52.293-.707s.442-.293.707-.293h24c1.326 0 2.598-.527 3.536-1.464s1.464-2.209 1.464-3.536-.527-2.598-1.464-3.536c-.938-.938-2.209-1.464-3.536-1.464zM11 6c-.53 0-1.039.211-1.414.586S9 7.47 9 8c0 .265-.105.52-.293.707S8.265 9 8 9c-.265 0-.52-.105-.707-.293S7 8.265 7 8c0-.791.235-1.564.674-2.222s1.064-1.171 1.795-1.473c.731-.303 1.535-.382 2.311-.228s1.489.535 2.048 1.095c.559.559.94 1.272 1.095 2.048s.075 1.58-.228 2.311c-.303.731-.815 1.356-1.473 1.795S11.791 12 11 12H1c-.265 0-.52-.105-.707-.293S0 11.265 0 11c0-.265.105-.52.293-.707S.735 10 1 10h10c.53 0 1.039-.211 1.414-.586S13 8.53 13 8c0-.53-.211-1.039-.586-1.414S11.53 6 11 6zM0 19c0-.265.105-.52.293-.707S.735 18 1 18h20.084c1.187 0 2.347.352 3.333 1.011s1.756 1.596 2.21 2.693c.454 1.096.573 2.303.341 3.467s-.803 2.233-1.642 3.072c-.839.839-1.908 1.411-3.072 1.642s-2.37.113-3.467-.341c-1.096-.454-2.033-1.223-2.693-2.21s-1.011-2.147-1.011-3.333c0-.265.105-.52.293-.707s.442-.293.707-.293c.265 0 .52.105.707.293s.293.442.293.707c0 .791.235 1.564.674 2.222s1.064 1.171 1.795 1.473 1.535.382 2.311.228 1.489-.535 2.048-1.095.94-1.272 1.095-2.048c.154-.776.075-1.58-.228-2.311s-.816-1.356-1.473-1.795c-.658-.44-1.431-.674-2.222-.674H.999c-.265 0-.52-.105-.707-.293s-.293-.442-.293-.707z"/>
    </symbol>
    <symbol id="icon-refrigerator" viewBox="0 0 32 32">
      <path d="M23.667 9.333c0-.265-.105-.52-.293-.707s-.442-.293-.707-.293c-.265 0-.52.105-.707.293s-.293.442-.293.707V12c0 .265.105.52.293.707s.442.293.707.293c.265 0 .52-.105.707-.293s.293-.442.293-.707V9.333zm0 9.334c0-.265-.105-.52-.293-.707s-.442-.293-.707-.293c-.265 0-.52.105-.707.293s-.293.442-.293.707v2.667c0 .265.105.52.293.707s.442.293.707.293c.265 0 .52-.105.707-.293s.293-.442.293-.707v-2.667z"/>
      <path d="M16.075 1.667h-.149c-2.451 0-4.392 0-5.911.204-1.563.211-2.828.653-3.827 1.651-.997.999-1.44 2.264-1.651 3.827-.204 1.52-.204 3.46-.204 5.911v4.149c0 2.451 0 4.392.204 5.911.211 1.563.653 2.828 1.651 3.827.613.612 1.325 1.015 2.145 1.284v.904c0 .552.448 1 1 1h1.333c.265 0 .52-.105.707-.293s.293-.442.293-.707v-.395c1.209.061 2.62.061 4.259.061h.149c1.64 0 3.049 0 4.259-.061v.395c0 .552.448 1 1 1h1.333c.265 0 .52-.105.707-.293s.293-.442.293-.707v-.904c.82-.269 1.533-.672 2.145-1.284.997-.999 1.44-2.264 1.651-3.827.204-1.52.204-3.46.204-5.911v-4.148c0-2.451 0-4.392-.204-5.911-.211-1.563-.653-2.828-1.651-3.827-.999-.997-2.264-1.44-3.827-1.651-1.52-.204-3.46-.204-5.911-.204zM7.603 4.936c.564-.564 1.337-.903 2.679-1.083 1.371-.184 3.176-.187 5.719-.187s4.349.003 5.72.187c1.34.18 2.113.519 2.677 1.083s.903 1.337 1.083 2.679c.184 1.371.187 3.176.187 5.719v1H6.335v-1c0-2.543.003-4.348.187-5.72.18-1.34.519-2.113 1.083-2.677zm-1.27 11.397h19.333v1c0 2.543-.003 4.349-.187 5.72-.18 1.34-.519 2.113-1.083 2.677s-1.337.903-2.679 1.083c-1.371.184-3.176.187-5.719.187s-4.348-.003-5.72-.187c-1.34-.18-2.113-.519-2.677-1.083s-.903-1.337-1.083-2.679c-.184-1.369-.187-3.176-.187-5.719v-1z"/>
    </symbol>
    <symbol id="icon-radio" viewBox="0 0 32 32">
      <path d="M14 5c0-.265.105-.52.293-.707S14.735 4 15 4h14c.265 0 .52.105.707.293S30 4.735 30 5v2c0 .265-.105.52-.293.707S29.265 8 29 8H15c-.265 0-.52-.105-.707-.293S14 7.265 14 7V5zM0 24c0-1.591.632-3.117 1.757-4.243S4.408 18 6 18s3.117.632 4.243 1.757C11.368 20.882 12 22.408 12 24s-.632 3.117-1.757 4.243C9.118 29.368 7.592 30 6 30s-3.117-.632-4.243-1.757C.632 27.118 0 25.592 0 24zm14-3c0-.265.105-.52.293-.707S14.735 20 15 20h14c.265 0 .52.105.707.293S30 20.735 30 21v2c0 .265-.105.52-.293.707S29.265 24 29 24H15c-.265 0-.52-.105-.707-.293S14 23.265 14 23v-2zm0-10c0-.265.105-.52.293-.707S14.735 10 15 10h10c.265 0 .52.105.707.293S26 10.735 26 11s-.105.52-.293.707A.9991.9991 0 0 1 25 12H15c-.265 0-.52-.105-.707-.293S14 11.265 14 11zm0 16c0-.265.105-.52.293-.707S14.735 26 15 26h10c.265 0 .52.105.707.293S26 26.735 26 27s-.105.52-.293.707A.9991.9991 0 0 1 25 28H15c-.265 0-.52-.105-.707-.293S14 27.265 14 27zM6 2c-.788 0-1.568.155-2.296.457s-1.389.744-1.947 1.301C1.2 4.315.758 4.977.456 5.705s-.457 1.508-.457 2.296c0 .788.155 1.568.457 2.296s.744 1.389 1.301 1.947c.557.557 1.219.999 1.947 1.301s1.508.457 2.296.457c1.591 0 3.117-.632 4.243-1.757S12 9.594 12 8.002c0-1.591-.632-3.117-1.757-4.243S7.592 2.002 6 2.002zm0 9c-.796 0-1.559-.316-2.121-.879S3 8.795 3 8c0-.796.316-1.559.879-2.121S5.205 5 6 5c.796 0 1.559.316 2.121.879S9 7.205 9 8c0 .796-.316 1.559-.879 2.121S6.795 11 6 11z"/>
    </symbol>
    <symbol id="icon-bathroom" viewBox="0 0 32 32">
      <path d="M8 29.5c0 .297-.088.587-.253.833s-.399.439-.673.552c-.274.114-.576.143-.867.085s-.558-.201-.768-.411c-.21-.21-.353-.477-.411-.768s-.028-.593.085-.867c.114-.274.306-.508.552-.673s.537-.253.833-.253c.398 0 .779.158 1.061.439s.439.663.439 1.061zm2.5-5.5c-.297 0-.587.088-.833.253s-.439.399-.552.673c-.114.274-.143.576-.085.867s.201.558.411.768c.21.21.477.353.768.411s.593.028.867-.085.508-.306.673-.552.253-.537.253-.833c0-.398-.158-.779-.439-1.061s-.663-.439-1.061-.439zm-8 0c-.297 0-.587.088-.833.253s-.439.399-.552.673c-.114.274-.143.576-.085.867s.201.558.411.768c.21.21.477.353.768.411s.593.028.867-.085.508-.306.673-.552.253-.537.253-.833c0-.398-.158-.779-.439-1.061s-.663-.439-1.061-.439zm4-4c-.297 0-.587.088-.833.253s-.439.399-.552.673c-.114.274-.143.576-.085.867s.201.558.411.768c.21.21.477.353.768.411s.593.028.867-.085.508-.306.673-.552.253-.537.253-.833c0-.398-.158-.779-.439-1.061s-.663-.439-1.061-.439zM32 5c0 .265-.105.52-.293.707S31.265 6 31 6h-3.586l-3.481 3.482-2.708 15.849c-.061.362-.22.7-.461.978s-.553.483-.902.595c-.35.112-.724.125-1.08.039s-.683-.27-.943-.529l-12.25-12.25c-.26-.26-.443-.586-.53-.944s-.073-.732.039-1.082c.112-.35.319-.662.597-.903s.617-.399.98-.46l15.842-2.709 3.775-3.775c.093-.093.203-.166.325-.217s.252-.076.383-.076h4c.265 0 .52.105.707.293s.293.442.293.707zm-10.224 5.224L7 12.75 19.25 25l2.526-14.776z"/>
    </symbol>
    <symbol id="icon-engine" viewBox="0 0 32 32">
      <path d="M6 5c0-.265.105-.52.293-.707S6.735 4 7 4h10c.265 0 .52.105.707.293S18 4.735 18 5v10c0 .265-.105.52-.293.707S17.265 16 17 16H7c-.265 0-.52-.105-.707-.293S6 15.265 6 15V5z"/>
      <path d="M2 4c0-1.061.421-2.078 1.172-2.828S4.94 0 6 0h12c1.061 0 2.078.421 2.828 1.172S22 2.94 22 4v16c1.061 0 2.078.421 2.828 1.172S26 22.94 26 24v1c0 .265.105.52.293.707S26.735 26 27 26s.52-.105.707-.293A.9991.9991 0 0 0 28 25v-9h-1c-.265 0-.52-.105-.707-.293S26 15.265 26 15V8.75c0-.265.105-.52.293-.707s.442-.293.707-.293h2.99c-.022-.952-.106-1.788-.402-2.444-.158-.381-.435-.702-.788-.916-.368-.22-.928-.39-1.8-.39-.265 0-.52-.105-.707-.293S26 3.265 26 3s.105-.52.293-.707A.9991.9991 0 0 1 27 2c1.128-.003 2.069.221 2.824.672.766.456 1.268 1.102 1.588 1.814.59 1.31.588 2.93.588 4.162v6.35c0 .132-.025.262-.076.383s-.124.232-.217.325-.203.167-.325.217-.252.076-.383.076h-1v9c0 .796-.316 1.559-.879 2.121s-1.326.879-2.121.879-1.559-.316-2.121-.879c-.563-.563-.879-1.326-.879-2.121v-1c0-.53-.211-1.039-.586-1.414s-.884-.586-1.414-.586v8h1c.265 0 .52.105.707.293s.293.442.293.707-.105.52-.293.707a.9991.9991 0 0 1-.707.293h-22c-.265 0-.52-.105-.707-.293s-.293-.442-.293-.707.105-.52.293-.707a.9991.9991 0 0 1 .707-.293h1v-26zm18 0c0-.53-.211-1.039-.586-1.414S18.53 2 18 2H6c-.53 0-1.039.211-1.414.586S4 3.47 4 4v26h16V4z"/>
    </symbol>
    <symbol id="icon-microwave" viewBox="0 0 32 32">
      <path d="M4.822 4.378c-.776.091-1.463.436-2.069 1.041-.415.403-.734.902-.921 1.462l-.007.026-.145.426v16l.145.427c.202.593.483 1.044.927 1.488.447.447.902.729 1.488.922.395.13.513.142 1.587.164l1.16.024v.861c0 .474.027.956.059 1.073.079.284.391.588.684.667.081.024.174.037.271.037.451 0 .833-.3.956-.711l.002-.007c.03-.109.055-.588.055-1.065v-.866h13.974v.866c0 .477.025.956.055 1.065.125.419.506.718.957.718.096 0 .19-.014.278-.039l-.007.002c.293-.079.605-.383.684-.667.032-.117.059-.599.059-1.073v-.861l1.16-.024c1.074-.022 1.192-.034 1.587-.164.586-.19 1.086-.507 1.487-.921l.001-.001c.444-.444.725-.895.927-1.488l.145-.427v-16l-.145-.426c-.194-.586-.513-1.085-.927-1.487l-.001-.001c-.629-.628-1.281-.946-2.142-1.045-.569-.065-21.723-.061-22.283.004zM27.37 6.497c.32.157.643.48.8.799l.123.251V23.12l-.124.252c-.176.358-.555.712-.899.84-.285.107-.388.108-11.27.108s-10.985-.001-11.27-.108c-.344-.128-.723-.482-.899-.84l-.124-.252-.015-7.68c-.012-5.729 0-7.738.047-7.907.124-.453.577-.933 1.043-1.104.174-.064 1.858-.074 11.271-.065l11.067.009.25.124zM8.935 9.713c-.443.064-.852.283-1.234.661-.38.375-.534.648-.637 1.138-.11.519-.11 7.123 0 7.642.103.489.256.762.638 1.144s.655.535 1.144.638c.521.111 8.454.111 8.975 0 .456-.096.71-.229 1.065-.554.376-.345.617-.755.714-1.213.115-.544.115-7.127 0-7.672-.194-.913-.99-1.655-1.92-1.788-.461-.066-8.29-.063-8.745.004zm14.825-.011c-.348.082-.62.344-.716.679l-.002.007c-.079.285-.075 9.618.004 9.904.079.284.391.588.684.667.081.024.174.037.271.037.451 0 .833-.3.956-.711l.002-.007c.076-.273.076-9.617 0-9.89-.065-.232-.272-.495-.471-.597-.15-.068-.325-.108-.51-.108-.077 0-.152.007-.225.02l.008-.001zm-6.204 2.066c.092.084.097.265.097 3.556 0 3.152-.008 3.476-.088 3.565-.084.093-.285.098-4.222.098-3.772 0-4.143-.008-4.232-.089-.093-.083-.098-.264-.098-3.555 0-3.152.008-3.477.089-3.565.084-.093.285-.098 4.222-.098 3.772 0 4.143.008 4.232.088z"/>
    </symbol>
    <symbol id="icon-map" viewBox="0 0 32 32">
      <path d="M31.634.226c.115.094.207.212.27.346S32 .852 32 1v28c0 .231-.08.455-.227.634s-.351.301-.577.346l-10 2c-.129.026-.263.026-.392 0L11 30.02l-9.804 1.96c-.145.029-.295.025-.438-.01s-.277-.103-.392-.197c-.114-.094-.207-.212-.27-.345S0 31.148 0 31V3c0-.231.08-.455.227-.634s.351-.301.577-.346l10-2c.129-.026.263-.026.392 0L21 1.98 30.804.02c.145-.029.295-.026.438.01s.277.103.392.196zM20 3.82l-8-1.6v25.96l8 1.6V3.82zm2 25.96 8-1.6V2.22l-8 1.6v25.96zm-12-1.6V2.22l-8 1.6v25.96l8-1.6z"/>
    </symbol>
    <symbol id="icon-water" viewBox="0 0 32 32">
      <path d="M15.467 2.591c-.173.061-.323.137-.462.229l.008-.005c-.406.281-2.444 2.832-3.717 4.652-2.99 4.274-4.729 7.98-5.192 11.066-.103.691-.118 2.213-.028 2.934.308 2.464 1.199 4.38 2.732 5.871 1.502 1.461 3.326 2.285 5.725 2.586.64.081 2.27.08 2.934-.001 2.379-.291 4.223-1.123 5.725-2.585 1.53-1.488 2.376-3.302 2.74-5.871.091-.644.071-2.174-.038-2.922-.456-3.112-2.199-6.822-5.243-11.156-1.25-1.78-3.236-4.266-3.647-4.563-.418-.303-1.033-.397-1.537-.235zM16.625 5.4c3.134 3.805 5.67 8 6.704 11.09.565 1.687.731 2.82.626 4.268-.157 2.17-.785 3.724-2.022 5.009C20.52 27.235 18.488 28 16 28c-1.506 0-2.812-.271-3.973-.825-1.789-.853-3.106-2.432-3.652-4.379-.247-.878-.34-1.623-.341-2.716-.001-1.018.065-1.558.312-2.532.72-2.839 2.852-6.721 5.858-10.668.737-.968 1.738-2.187 1.796-2.187.024 0 .305.318.625.707zm4.467 14.194c-.219.096-.488.414-.555.658-.035.142-.056.305-.057.472v.001c0 .395-.184 1.053-.405 1.447-.235.42-.78 1.008-1.184 1.276-.427.283-1.053.485-1.698.545-.414.039-.583.079-.726.173-.278.176-.46.482-.46.831 0 .128.024.25.069.362l-.002-.007c.2.522.593.692 1.428.615.967-.089 2.033-.493 2.765-1.048.429-.326 1.027-.953 1.294-1.357.51-.778.845-1.714.928-2.722l.001-.021c.029-.437.019-.513-.09-.739-.173-.337-.518-.564-.916-.564-.141 0-.276.029-.398.08l.007-.003z"/>
    </symbol>
    <symbol id="icon-van" viewBox="0 0 32 32">
      <path d="M12 2H2v28h10V2zm18 0H20v10h10V2zm0 18v10H20V20h10zM0 2C0 1.47.211.961.586.586S1.47 0 2 0h10c.53 0 1.039.211 1.414.586S14 1.47 14 2v28c0 .53-.211 1.039-.586 1.414S12.53 32 12 32H2c-.53 0-1.039-.211-1.414-.586S0 30.53 0 30V2zm18 0c0-.53.211-1.039.586-1.414S19.47 0 20 0h10c.53 0 1.039.211 1.414.586S32 1.47 32 2v10c0 .53-.211 1.039-.586 1.414S30.53 14 30 14H20c-.53 0-1.039-.211-1.414-.586S18 12.53 18 12V2zm2 16c-.53 0-1.039.211-1.414.586S18 19.47 18 20v10c0 .53.211 1.039.586 1.414S19.47 32 20 32h10c.53 0 1.039-.211 1.414-.586S32 30.53 32 30V20c0-.53-.211-1.039-.586-1.414S30.53 18 30 18H20z"/>
    </symbol>
    <symbol id="icon-like" viewBox="0 0 32 32">
      <path d="m16 13.139-1.788-3.578c-.444-.886-1.214-2.16-2.304-3.19C10.836 5.357 9.552 4.667 8 4.667c-3.352 0-6 2.652-6 5.84 0 2.422 1.108 4.132 3.736 6.74.674.668 1.442 1.39 2.292 2.186C10.244 21.513 13 24.101 16 27.561c3-3.46 5.756-6.048 7.972-8.128.85-.796 1.62-1.52 2.292-2.186C28.892 14.639 30 12.929 30 10.507c0-3.188-2.648-5.84-6-5.84-1.554 0-2.836.69-3.908 1.704-1.09 1.03-1.86 2.304-2.304 3.19L16 13.139zm.784 16.584c-.096.114-.216.206-.352.269s-.283.095-.432.095-.297-.033-.432-.095c-.135-.063-.255-.155-.352-.269-3.202-3.804-6.1-6.524-8.486-8.762C2.6 17.083 0 14.645 0 10.507c0-4.33 3.58-7.84 8-7.84 3.2 0 5.438 2.1 6.808 4.016.52.73.916 1.432 1.192 1.984.346-.691.745-1.354 1.192-1.984C18.562 4.765 20.8 2.667 24 2.667c4.42 0 8 3.51 8 7.84 0 4.138-2.6 6.576-6.73 10.454-2.386 2.24-5.284 4.962-8.486 8.762z"/>
    </symbol>
    <symbol id="icon-tv" viewBox="0 0 32 32">
      <path d="M0 8s0-4 4-4h24s4 0 4 4v12s0 4-4 4h-8c0 1.333.167 2.333.5 3H22c.265 0 .52.105.707.293S23 27.735 23 28c0 .265-.105.52-.293.707S22.265 29 22 29H10c-.265 0-.52-.105-.707-.293S9 28.265 9 28c0-.265.105-.52.293-.707S9.735 27 10 27h1.5c.333-.667.5-1.667.5-3H4s-4 0-4-4V8zm2.796-1.71c-.22.153-.395.361-.508.604-.168.353-.266.735-.288 1.126V20c0 .65.156 1.004.29 1.204.14.208.341.377.604.508.338.162.703.259 1.076.286l.05.002H28c.65 0 1.004-.156 1.204-.29.22-.153.395-.361.508-.604.162-.338.259-.703.286-1.076l.002-.05V8c0-.65-.156-1.004-.29-1.204-.153-.22-.361-.395-.604-.508A3.0178 3.0178 0 0 0 27.98 6H4c-.65 0-1.004.156-1.204.29z"/>
    </symbol>
    <symbol id="icon-chevron" viewBox="0 0 32 32">
      <path d="M30.337 7.192l-14.337 14.29-14.337-14.29-1.663 1.669 16 15.948 16-15.948z" />
    </symbol>
  </defs>
</svg>
